# xmcd CD database file
#
# Track frame offsets:
#	150
#	8043
#	25675
#	71046
#	97429
#	148943
#	175277
#
# Disc length: 2448 seconds
#
# Revision: 0
# Processed by: cddbd v1.5.2PL0 Copyright (c) Steve Scherf et al.
# Submitted via: CDex 1.51
#
DISCID=62098e07
DTITLE=Boots brown - Boots brown
DYEAR=2005
DGENRE=Jazz
TTITLE0=Knee-high
TTITLE1=Teak industrial trailblazer
TTITLE2=Gaucho volcano
TTITLE3=Mid calf
TTITLE4=Black inustrial greasy
TTITLE5=Bark industrial grizzly
TTITLE6=Rigger boots
EXTD=YEAR: 2005
EXTT0=
EXTT1=
EXTT2=
EXTT3=
EXTT4=
EXTT5=
EXTT6=
PLAYORDER=
